<svg width="64" height="64" fill="none" xmlns="http://www.w3.org/2000/svg"><path d="M57.4134 28.9864L53.36 24.9331C52.6667 24.2398 52.1067 22.8798 52.1067 21.9198V16.1598C52.1067 13.8131 50.1867 11.8931 47.84 11.8931H42.1067C41.1467 11.8931 39.7867 11.3331 39.0933 10.6398L35.04 6.58644C33.3867 4.9331 30.6667 4.9331 29.0133 6.58644L24.9067 10.6398C24.24 11.3331 22.88 11.8931 21.8933 11.8931H16.16C13.8133 11.8931 11.8933 13.8131 11.8933 16.1598V21.8931C11.8933 22.8531 11.3333 24.2131 10.64 24.9064L6.58668 28.9598C4.93335 30.6131 4.93335 33.3331 6.58668 34.9864L10.64 39.0398C11.3333 39.7331 11.8933 41.0931 11.8933 42.0531V47.7864C11.8933 50.1331 13.8133 52.0531 16.16 52.0531H21.8933C22.8533 52.0531 24.2133 52.6131 24.9067 53.3064L28.96 57.3598C30.6133 59.0131 33.3333 59.0131 34.9867 57.3598L39.04 53.3064C39.7333 52.6131 41.0933 52.0531 42.0533 52.0531H47.7867C50.1333 52.0531 52.0534 50.1331 52.0534 47.7864V42.0531C52.0534 41.0931 52.6133 39.7331 53.3067 39.0398L57.36 34.9864C59.0934 33.3598 59.0934 30.6398 57.4134 28.9864ZM21.3333 23.9998C21.3333 22.5331 22.5333 21.3331 24 21.3331C25.4667 21.3331 26.6667 22.5331 26.6667 23.9998C26.6667 25.4664 25.4933 26.6664 24 26.6664C22.5333 26.6664 21.3333 25.4664 21.3333 23.9998ZM25.4133 41.4131C25.0133 41.8131 24.5067 41.9998 24 41.9998C23.4933 41.9998 22.9867 41.8131 22.5867 41.4131C21.8133 40.6398 21.8133 39.3598 22.5867 38.5864L38.5867 22.5864C39.36 21.8131 40.64 21.8131 41.4133 22.5864C42.1867 23.3598 42.1867 24.6398 41.4133 25.4131L25.4133 41.4131ZM40 42.6664C38.5067 42.6664 37.3067 41.4664 37.3067 39.9998C37.3067 38.5331 38.5067 37.3331 39.9733 37.3331C41.44 37.3331 42.64 38.5331 42.64 39.9998C42.64 41.4664 41.4667 42.6664 40 42.6664Z" fill="white"/></svg>